#!OML:ASF X:\für Bonn\!DataBase\2005_08_10_Bjorn_Final\c3d\bjorn.ASF
:FULLY-SPECIFIED
:DEGREES
166
root 3.35125 7.43208 -0.491402 298.215 -263.821 -407.247
lowerback 49.9691 -8.37402 6.32747
upperback 22.6653 -1.52592 5.26415
thorax 4.93975 1.39433 3.46924
lowerneck -5.09616 -8.99289 0.343487
upperneck 7.64132 -12.0463 1.11098
head 3.4074 -5.87604 -0.241376
rclavicle -1.27222e-014 -6.20208e-014
rhumerus 0.350871 -13.6115 -74.6606
rradius 32.8966
rwrist 20.1231
rhand -52.5668 59.9994
rfingers 7.12502
rthumb -25.0508 31.6222
lclavicle -1.27222e-014 -6.20208e-014
lhumerus 23.4369 -34.9608 55.1531
lradius 38.319
lwrist -16.1585
lhand -25.2056 -15.2634
lfingers 7.12502
lthumb 1.31298 14.7123
rfemur 144.381 68.5665 31.7114
rtibia 203.269
rfoot -102.803 104.428
rtoes -12.7493
lfemur 63.2876 75.689 133.294
ltibia 158.415
lfoot -52.601 -32.9852
ltoes -31.6262
167
root 3.35655 7.41979 -0.489606 297.976 -263.87 -407.402
lowerback 49.9406 -8.3621 6.3555
upperback 22.6197 -1.51797 5.26323
thorax 4.89063 1.3958 3.44968
lowerneck -5.19249 -8.88901 0.385326
upperneck 7.73067 -11.8942 0.882946
head 3.43701 -5.80594 -0.320506
rclavicle -3.18055e-015 5.32743e-014
rhumerus 0.261633 -13.682 -74.6942
rradius 32.6863
rwrist 20.3466
rhand -52.6438 60.3548
rfingers 7.12502
rthumb -25.1245 31.988
lclavicle -3.18055e-015 5.32743e-014
lhumerus 22.9659 -35.4158 55.2154
lradius 38.4186
lwrist -16.1275
lhand -25.2413 -15.2665
lfingers 7.12502
lthumb 1.27848 14.7094
rfemur 144.295 68.341 31.4195
rtibia 203.216
rfoot -103.964 104.262
rtoes -12.3043
lfemur 63.5347 75.151 133.838
ltibia 158.497
lfoot -52.8096 -33.1664
ltoes -31.5903
168
root 3.36135 7.4091 -0.487541 297.822 -263.933 -407.482
lowerback 49.9173 -8.34292 6.38567
upperback 22.5647 -1.50024 5.28059
thorax 4.83024 1.39918 3.4454
lowerneck -5.24237 -8.77381 0.439574
upperneck 7.70814 -11.7251 0.625921
head 3.41646 -5.73121 -0.40367
rclavicle 1.59028e-014 6.99722e-014
rhumerus 0.166878 -13.756 -74.7061
rradius 32.4892
rwrist 20.6013
rhand -52.7255 60.5692
rfingers 7.12502
rthumb -25.2028 32.2133
lclavicle 1.59028e-014 6.99722e-014
lhumerus 22.5079 -35.8634 55.2839
lradius 38.4952
lwrist -16.1695
lhand -25.2705 -15.2774
lfingers 7.12502
lthumb 1.25028 14.6986
rfemur 144.181 68.1221 31.1624
rtibia 203.165
rfoot -104.845 104.316
rtoes -12.1718
lfemur 63.8017 74.5687 134.441
ltibia 158.582
lfoot -52.9775 -33.4724
ltoes -31.333
169
root 3.36631 7.3999 -0.486066 297.683 -263.976 -407.545
lowerback 49.8615 -8.32547 6.37047
upperback 22.5422 -1.50453 5.30646
thorax 4.81024 1.38852 3.4783
lowerneck -5.25341 -8.63286 0.482056
upperneck 7.54718 -11.5218 0.373177
head 3.34224 -5.64307 -0.475417
rclavicle 4.45278e-014 1.27222e-014
rhumerus 0.156795 -13.7988 -74.7079
rradius 32.226
rwrist 20.9125
rhand -52.822 60.7336
rfingers 7.12502
rthumb -25.2952 32.3908
lclavicle 4.45278e-014 1.27222e-014
lhumerus 22.0406 -36.2563 55.3503
lradius 38.6046
lwrist -16.2209
lhand -25.3072 -15.2197
lfingers 7.12502
lthumb 1.21484 14.7566
rfemur 144.136 67.9209 30.9906
rtibia 203.134
rfoot -105.704 104.313
rtoes -11.9085
lfemur 63.8144 74.1932 134.745
ltibia 158.65
lfoot -53.0048 -33.8297
ltoes -31.0236
170
root 3.37098 7.39151 -0.483994 297.488 -264.024 -407.678
lowerback 49.7308 -8.29618 6.37288
upperback 22.5769 -1.49303 5.32174
thorax 4.86422 1.3933 3.48733
lowerneck -5.36314 -8.46891 0.632157
upperneck 7.34859 -11.2992 0.0987832
head 3.26657 -5.54405 -0.574323
rclavicle -3.49861e-014 -9.06458e-014
rhumerus 0.210837 -13.907 -74.7472
rradius 31.9708
rwrist 21.1738
rhand -52.843 60.8128
rfingers 7.12502
rthumb -25.3153 32.4729
lclavicle -3.49861e-014 -9.06458e-014
lhumerus 21.7217 -36.667 55.3127
lradius 38.6867
lwrist -16.1997
lhand -25.3706 -15.2668
lfingers 7.12502
lthumb 1.15366 14.7098
rfemur 144.047 67.7505 30.7665
rtibia 203.1
rfoot -106.625 104.23
rtoes -11.5202
lfemur 63.8036 73.9026 135.027
ltibia 158.714
lfoot -52.9834 -34.1553
ltoes -30.843
171
root 3.37581 7.38434 -0.481321 297.375 -264.066 -407.723
lowerback 49.586 -8.25998 6.34906
upperback 22.6328 -1.48144 5.3638
thorax 4.9438 1.39456 3.53771
lowerneck -5.49552 -8.29779 0.7466
upperneck 7.12692 -11.0629 -0.205709
head 3.18921 -5.44061 -0.677047
rclavicle -3.18055e-014 -4.45278e-014
rhumerus 0.322652 -14.0341 -74.76
rradius 31.6666
rwrist 21.4451
rhand -52.8197 60.8317
rfingers 7.12502
rthumb -25.2931 32.4885
lclavicle -3.18055e-014 -4.45278e-014
lhumerus 21.399 -37.0032 55.3301
lradius 38.7828
lwrist -16.2562
lhand -25.3694 -15.318
lfingers 7.12502
lthumb 1.15477 14.6586
rfemur 144.053 67.55 30.6651
rtibia 203.066
rfoot -107.372 104.403
rtoes -11.6969
lfemur 63.6231 73.6469 135.163
ltibia 158.767
lfoot -52.8554 -34.7374
ltoes -30.3767
172
root 3.38057 7.37919 -0.479212 297.27 -264.109 -407.76
lowerback 49.4677 -8.2343 6.33383
upperback 22.6562 -1.48057 5.38652
thorax 4.98371 1.39044 3.56598
lowerneck -5.55195 -8.09825 0.901701
upperneck 6.86248 -10.7927 -0.504401
head 3.08273 -5.3195 -0.777691
rclavicle 2.22639e-014 4.6118e-014
rhumerus 0.387473 -14.1303 -74.7835
rradius 31.3777
rwrist 21.7424
rhand -52.7923 60.7986
rfingers 7.12502
rthumb -25.2668 32.4518
lclavicle 2.22639e-014 4.6118e-014
lhumerus 21.0292 -37.3823 55.3199
lradius 38.9087
lwrist -16.2337
lhand -25.3849 -15.395
lfingers 7.12502
lthumb 1.1398 14.5817
rfemur 144.071 67.3948 30.6262
rtibia 203.061
rfoot -108.14 104.402
rtoes -11.4969
lfemur 63.4071 73.4623 135.211
ltibia 158.806
lfoot -52.7832 -35.0694
ltoes -30.1632
